@startuml

class Combate {
  +Dañar(Personaje, Monstruo)
  +RecibirDaño(Personaje, Monstruo)
}

Combate --|> Personaje
Combate --|> Monstruo

class Usuario

class Personaje {
  +Morir()
  +Dañar()
  +RecibirDaño()
}

Personaje --|> Combate
Personaje *-- Vida
Ataque o-- Vida

class Espadachin
class Mago
class Arquero
class Ladron
class Acolito
class Mercader


class Monstruo {
  +RecibirDanio()
  +Dañar()
}


class NoMuerto
class Demonio
class Pez
class Planta
class Forma
class Insecto
class Bruto
class Angel
class Dragon
class Humanoide

Monstruo *-- Ataque
Class Ataque

NoMuerto --|> Monstruo
Demonio --|> Monstruo
Pez --|> Monstruo
Planta --|> Monstruo
Forma --|> Monstruo
Insecto --|> Monstruo
Bruto --|> Monstruo
Angel --|> Monstruo
Dragon --|> Monstruo
Humanoide --|> Monstruo

class Arma
Espada --|> Arma
Yelmo --|> Arma
Vara --|> Arma
Arco --|> Arma
Ballesta --|> Arma
Daga --|> Arma
Ganzua --|> Arma
Hacha --|> Arma
Garrote --|> Arma

class Arma {
    + Dañar()
}

class Espada
class Escudo
class CotaMalla
class Yelmo

class TunicaSeda
class SombreroMago
class Baston
class Vara

class Capucha
class Bota
class Arco
class Ballesta

class Abrigo
class Guante
class Daga
class Ganzua

class TunicaSagrada
class Rosario
class Maza

class Delantal
class Carrito
class Hacha
class Garrote


Usuario o-- Personaje

Personaje o-- Arma

Espadachin --|> Personaje
Mago --|> Personaje
Arquero --|> Personaje
Ladron --|> Personaje
Acolito --|> Personaje
Mercader --|> Personaje

Espadachin "1" o-- "1" CotaMalla
Espadachin "1" o-- "1" Yelmo
Espadachin "1" o-- "1" Espada
Espadachin "1" o-- "1" Escudo

Mago "1" o-- "1" TunicaSeda
Mago "1" o-- "1" SombreroMago
Mago "1" o-- "1" Baston
Mago "1" o-- "1" Vara

Arquero "1" o-- "1" Capucha
Arquero "1" o-- "2" Bota
Arquero "1" o-- "1" Arco
Arquero "1" o-- "1" Ballesta

Ladron "1" o-- "1" Abrigo
Ladron "1" o-- "2" Guante
Ladron "1" o-- "1" Daga
Ladron "1" o-- "1" Ganzua

Acolito "1" o-- "1" TunicaSagrada
Acolito "1" o-- "1" Rosario
Acolito "1" o-- "1" Maza
Acolito "1" o-- "1" Vara

Mercader "1" o-- "1" Delantal
Mercader "1" o-- "1" Carrito
Mercader "1" o-- "1" Hacha
Mercader "1" o-- "1" Garrote


@enduml
